<svg width="139" height="23" viewBox="0 0 139 23" fill="none" xmlns="http://www.w3.org/2000/svg">
<path d="M2.7778 17.3373V0H0V17.3373H2.7778Z" fill="#4E5053"/>
<path d="M10.9152 15.206C9.21499 15.206 7.65847 13.9129 7.65847 11.4943C7.65847 9.07573 9.21499 7.83051 10.9152 7.83051C12.6393 7.83051 14.1719 9.07573 14.1719 11.4943C14.1719 13.9369 12.6393 15.206 10.9152 15.206ZM10.9152 5.31613C7.44295 5.31613 4.88067 7.9263 4.88067 11.4943C4.88067 15.0863 7.44295 17.6965 10.9152 17.6965C14.4114 17.6965 16.9737 15.0863 16.9737 11.4943C16.9737 7.9263 14.4114 5.31613 10.9152 5.31613Z" fill="#4E5053"/>
<path d="M29.2736 5.67533H26.3522L23.3349 14.0087L20.2458 5.67533H17.1806L21.9221 17.3373H24.6999L29.2736 5.67533Z" fill="#4E5053"/>
<path d="M32.3372 10.2252C32.433 8.97995 33.4387 7.63894 35.1868 7.63894C37.1025 7.63894 38.0125 8.86021 38.0604 10.2252H32.3372ZM38.3717 13.2664C37.9886 14.4158 37.1265 15.3018 35.4502 15.3018C33.7261 15.3018 32.3372 14.0327 32.2653 12.2606H40.7903C40.8143 12.2127 40.8621 11.8296 40.8621 11.3746C40.8621 7.68683 38.7549 5.31613 35.1629 5.31613C32.2175 5.31613 29.4875 7.75867 29.4875 11.4464C29.4875 15.3976 32.2893 17.6965 35.4502 17.6965C38.252 17.6965 40.0959 16.0442 40.7185 14.0087L38.3717 13.2664Z" fill="#4E5053"/>
<path d="M50.6469 21.8871V16.0202C51.2456 16.9062 52.5147 17.6246 54.191 17.6246C57.5435 17.6246 59.6748 14.9905 59.6748 11.4943C59.6748 8.04598 57.7351 5.41186 54.2868 5.41186C52.4908 5.41186 51.1498 6.24999 50.5751 7.25574V5.67527H47.8931V21.8871H50.6469ZM56.897 11.4943C56.897 13.7213 55.6038 15.1581 53.76 15.1581C51.94 15.1581 50.623 13.7213 50.623 11.4943C50.623 9.31514 51.94 7.87835 53.76 7.87835C55.6278 7.87835 56.897 9.31514 56.897 11.4943Z" fill="#007AFF"/>
<path d="M68.5998 5.60343C68.48 5.57948 68.1927 5.53159 67.8574 5.53159C66.3248 5.53159 65.0317 6.27393 64.481 7.5431V5.67527H61.775V17.3372H64.5528V11.7816C64.5528 9.6025 65.5346 8.35728 67.6898 8.35728C67.9772 8.35728 68.2885 8.38123 68.5998 8.42912V5.60343Z" fill="#007AFF"/>
<path d="M75.3561 15.206C73.6559 15.206 72.0994 13.9129 72.0994 11.4943C72.0994 9.07568 73.6559 7.83046 75.3561 7.83046C77.0803 7.83046 78.6129 9.07568 78.6129 11.4943C78.6129 13.9368 77.0803 15.206 75.3561 15.206ZM75.3561 5.31607C71.8839 5.31607 69.3216 7.92624 69.3216 11.4943C69.3216 15.0863 71.8839 17.6964 75.3561 17.6964C78.8523 17.6964 81.4146 15.0863 81.4146 11.4943C81.4146 7.92624 78.8523 5.31607 75.3561 5.31607Z" fill="#007AFF"/>
<path d="M86.2827 21.8871V16.0202C86.8814 16.9062 88.1506 17.6246 89.8268 17.6246C93.1793 17.6246 95.3106 14.9905 95.3106 11.4943C95.3106 8.04598 93.3709 5.41186 89.9226 5.41186C88.1266 5.41186 86.7856 6.24999 86.2109 7.25574V5.67527H83.5289V21.8871H86.2827ZM92.5328 11.4943C92.5328 13.7213 91.2397 15.1581 89.3958 15.1581C87.5758 15.1581 86.2588 13.7213 86.2588 11.4943C86.2588 9.31514 87.5758 7.87835 89.3958 7.87835C91.2636 7.87835 92.5328 9.31514 92.5328 11.4943Z" fill="#007AFF"/>
<path d="M99.3505 10.2251C99.4463 8.97989 100.452 7.63889 102.2 7.63889C104.116 7.63889 105.026 8.86016 105.074 10.2251H99.3505ZM105.385 13.2663C105.002 14.4158 104.14 15.3018 102.464 15.3018C100.739 15.3018 99.3505 14.0326 99.2787 12.2606H107.804C107.828 12.2127 107.875 11.8295 107.875 11.3745C107.875 7.68678 105.768 5.31607 102.176 5.31607C99.2308 5.31607 96.5009 7.75862 96.5009 11.4464C96.5009 15.3976 99.3026 17.6964 102.464 17.6964C105.265 17.6964 107.109 16.0441 107.732 14.0087L105.385 13.2663Z" fill="#007AFF"/>
<path d="M116.785 5.60343C116.665 5.57948 116.377 5.53159 116.042 5.53159C114.51 5.53159 113.217 6.27393 112.666 7.5431V5.67527H109.96V17.3372H112.738V11.7816C112.738 9.6025 113.719 8.35728 115.875 8.35728C116.162 8.35728 116.473 8.38123 116.785 8.42912V5.60343Z" fill="#007AFF"/>
<path d="M122.568 2.10724H120.054V3.85534C120.054 4.88504 119.503 5.67527 118.258 5.67527H117.659V8.14176H119.814V14.0087C119.814 16.1878 121.155 17.4809 123.31 17.4809C124.316 17.4809 124.843 17.2893 125.01 17.2175V14.9186C124.891 14.9426 124.436 15.0144 124.053 15.0144C123.023 15.0144 122.568 14.5834 122.568 13.5537V8.14176H124.987V5.67527H122.568V2.10724Z" fill="#007AFF"/>
<path d="M131.002 22.0547L138.425 5.67527H135.48L132.343 13.0508L128.99 5.67527H125.853L130.834 15.9483L128.032 22.0547H131.002Z" fill="#007AFF"/>
</svg>
